<svg version="1.1" id="Layer_1" xmlns="http://www.w3.org/2000/svg" xmlns:xlink="http://www.w3.org/1999/xlink" x="0px" y="0px"
	 width="100%" viewBox="0 0 512 512" enable-background="new 0 0 512 512" xml:space="preserve">
<path fill="none" opacity="0" stroke="none"
	d="
M278.000000,513.000000
	C185.355820,513.000000 93.211639,513.000000 1.033728,513.000000
	C1.033728,342.397461 1.033728,171.794907 1.033728,1.096182
	C171.560867,1.096182 342.121796,1.096182 512.841370,1.096182
	C512.841370,171.666550 512.841370,342.333252 512.841370,513.000000
	C434.794891,513.000000 356.647430,513.000000 278.000000,513.000000
M269.500000,256.027435
	C181.173508,256.822845 93.187042,251.459000 4.882002,240.876160 
	C4.882002,243.399429 4.882264,245.354980 4.881964,247.310547 
	C4.873675,301.308929 5.091830,355.309052 4.672761,409.304230 
	C4.585173,420.589630 9.043894,428.351654 17.599239,434.692841 
	C29.524105,443.531433 43.069130,449.064972 56.883129,453.999298 
	C82.357590,463.098694 108.725533,468.594696 135.353607,472.923584 
	C144.008835,474.330627 152.738174,475.281769 162.279160,476.554199 
	C162.279160,473.707855 162.280243,471.605438 162.279007,469.503021 
	C162.253128,425.837677 162.228256,382.172363 162.200027,338.507019 
	C162.192978,327.623383 167.099182,322.695038 178.061172,322.693451 
	C231.226242,322.685760 284.391296,322.686035 337.556366,322.706573 
	C349.101288,322.711029 353.729614,327.526031 353.695221,339.213348 
	C353.568176,382.375824 353.457336,425.538422 353.372681,468.700989 
	C353.367950,471.106964 353.653717,473.513550 353.834564,476.403687 
	C357.637421,475.962006 360.748352,475.625793 363.852173,475.233368 
	C367.150543,474.816376 370.443726,474.357269 373.736511,473.897369 
	C405.120911,469.513794 435.993561,462.916565 465.676147,451.618744 
	C478.581757,446.706543 491.339935,441.281403 501.886566,431.915100 
	C508.040955,426.449463 511.253448,420.037567 511.211914,411.384125 
	C510.948883,356.553650 511.065918,301.721344 511.057678,246.889648 
	C511.057373,244.990967 511.057648,243.092285 511.057648,240.894791 
	C430.558319,250.803207 350.681793,255.882599 269.500000,256.027435 
M352.422028,201.076584 
	C359.949951,209.301514 367.809357,217.255005 374.862976,225.868347 
	C378.278259,230.038818 381.713379,231.225174 386.809692,230.802353 
	C416.645294,228.327042 446.507294,226.171692 476.346863,223.742477 
	C484.654694,223.066132 492.916687,221.827011 501.890839,220.764221 
	C500.778442,219.515823 500.387115,218.990112 499.912140,218.555893 
	C458.509460,180.705048 417.082703,142.880447 375.737122,104.967354 
	C373.363037,102.790367 371.230774,102.734543 368.512054,103.768852 
	C350.961182,110.445938 333.161041,116.530922 315.896912,123.877594 
	C303.272461,129.249847 291.343170,136.255554 278.001221,143.098785 
	C305.484192,160.248932 329.877991,178.921692 352.422028,201.076584 
M194.365753,121.161331 
	C179.260742,115.518478 164.118591,109.971970 149.074997,104.169899 
	C144.944366,102.576790 142.109146,103.363129 138.852646,106.357872 
	C98.643440,143.335266 58.301380,180.168167 18.004805,217.050583 
	C16.966257,218.001160 16.054777,219.090546 14.664514,220.558029 
	C17.127583,221.047409 18.863499,221.570267 20.630672,221.717194 
	C57.614201,224.791977 94.606140,227.767548 131.580750,230.945023 
	C135.663223,231.295853 137.996353,229.591537 140.399841,226.733749 
	C162.815796,200.080811 188.122665,176.577789 216.973923,156.982040 
	C223.523972,152.533264 230.128479,148.164642 238.126282,142.809402 
	C223.017517,135.316925 209.042740,128.386795 194.365753,121.161331 
M250.365372,126.142563 
	C255.296265,130.574982 259.710358,130.027481 265.382538,126.442665 
	C284.120148,114.600487 303.902222,104.657974 324.716492,96.923546 
	C336.649689,92.489273 348.697266,88.362877 361.650085,83.757729 
	C328.981995,53.366180 293.623932,30.737043 247.099030,35.154442 
	C209.882019,38.688084 181.092926,58.822662 154.047638,84.156303 
	C188.504929,94.466751 220.252518,107.536842 250.365372,126.142563 
M173.644089,222.150024 
	C171.094238,224.848129 168.544388,227.546234 165.299210,230.980072 
	C227.558044,230.980072 288.502991,230.980072 350.169952,230.980072 
	C349.299866,229.818573 348.877533,229.153320 348.357880,228.575623 
	C322.871918,200.244263 292.769684,177.577179 260.648529,157.443283 
	C259.216919,156.545898 256.077515,156.917862 254.505600,157.915314 
	C225.486389,176.329117 197.934189,196.625168 173.644089,222.150024 
z"/>
<path fill="#407BF6" opacity="1.000000" stroke="none" 
	d="
M270.000000,256.026764 
	C350.681793,255.882599 430.558319,250.803207 511.057648,240.894791 
	C511.057648,243.092285 511.057373,244.990967 511.057678,246.889648 
	C511.065918,301.721344 510.948883,356.553650 511.211914,411.384125 
	C511.253448,420.037567 508.040955,426.449463 501.886566,431.915100 
	C491.339935,441.281403 478.581757,446.706543 465.676147,451.618744 
	C435.993561,462.916565 405.120911,469.513794 373.736511,473.897369 
	C370.443726,474.357269 367.150543,474.816376 363.852173,475.233368 
	C360.748352,475.625793 357.637421,475.962006 353.834564,476.403687 
	C353.653717,473.513550 353.367950,471.106964 353.372681,468.700989 
	C353.457336,425.538422 353.568176,382.375824 353.695221,339.213348 
	C353.729614,327.526031 349.101288,322.711029 337.556366,322.706573 
	C284.391296,322.686035 231.226242,322.685760 178.061172,322.693451 
	C167.099182,322.695038 162.192978,327.623383 162.200027,338.507019 
	C162.228256,382.172363 162.253128,425.837677 162.279007,469.503021 
	C162.280243,471.605438 162.279160,473.707855 162.279160,476.554199 
	C152.738174,475.281769 144.008835,474.330627 135.353607,472.923584 
	C108.725533,468.594696 82.357590,463.098694 56.883129,453.999298 
	C43.069130,449.064972 29.524105,443.531433 17.599239,434.692841 
	C9.043894,428.351654 4.585173,420.589630 4.672761,409.304230 
	C5.091830,355.309052 4.873675,301.308929 4.881964,247.310547 
	C4.882264,245.354980 4.882002,243.399429 4.882002,240.876160 
	C93.187042,251.459000 181.173508,256.822845 270.000000,256.026764 
z"/>
<path fill="#417BF6" opacity="1.000000" stroke="none" 
	d="
M352.169312,200.826859 
	C329.877991,178.921692 305.484192,160.248932 278.001221,143.098785 
	C291.343170,136.255554 303.272461,129.249847 315.896912,123.877594 
	C333.161041,116.530922 350.961182,110.445938 368.512054,103.768852 
	C371.230774,102.734543 373.363037,102.790367 375.737122,104.967354 
	C417.082703,142.880447 458.509460,180.705048 499.912140,218.555893 
	C500.387115,218.990112 500.778442,219.515823 501.890839,220.764221 
	C492.916687,221.827011 484.654694,223.066132 476.346863,223.742477 
	C446.507294,226.171692 416.645294,228.327042 386.809692,230.802353 
	C381.713379,231.225174 378.278259,230.038818 374.862976,225.868347 
	C367.809357,217.255005 359.949951,209.301514 352.169312,200.826859 
z"/>
<path fill="#417CF6" opacity="1.000000" stroke="none" 
	d="
M194.716858,121.308998 
	C209.042740,128.386795 223.017517,135.316925 238.126282,142.809402 
	C230.128479,148.164642 223.523972,152.533264 216.973923,156.982040 
	C188.122665,176.577789 162.815796,200.080811 140.399841,226.733749 
	C137.996353,229.591537 135.663223,231.295853 131.580750,230.945023 
	C94.606140,227.767548 57.614201,224.791977 20.630672,221.717194 
	C18.863499,221.570267 17.127583,221.047409 14.664514,220.558029 
	C16.054777,219.090546 16.966257,218.001160 18.004805,217.050583 
	C58.301380,180.168167 98.643440,143.335266 138.852646,106.357872 
	C142.109146,103.363129 144.944366,102.576790 149.074997,104.169899 
	C164.118591,109.971970 179.260742,115.518478 194.716858,121.308998 
z"/>
<path fill="#417CF6" opacity="1.000000" stroke="none" 
	d="
M250.048508,125.957924 
	C220.252518,107.536842 188.504929,94.466751 154.047638,84.156303 
	C181.092926,58.822662 209.882019,38.688084 247.099030,35.154442 
	C293.623932,30.737043 328.981995,53.366180 361.650085,83.757729 
	C348.697266,88.362877 336.649689,92.489273 324.716492,96.923546 
	C303.902222,104.657974 284.120148,114.600487 265.382538,126.442665 
	C259.710358,130.027481 255.296265,130.574982 250.048508,125.957924 
z"/>
<path fill="#417BF5" opacity="1.000000" stroke="none" 
	d="
M173.898376,221.902405 
	C197.934189,196.625168 225.486389,176.329117 254.505600,157.915314 
	C256.077515,156.917862 259.216919,156.545898 260.648529,157.443283 
	C292.769684,177.577179 322.871918,200.244263 348.357880,228.575623 
	C348.877533,229.153320 349.299866,229.818573 350.169952,230.980072 
	C288.502991,230.980072 227.558044,230.980072 165.299210,230.980072 
	C168.544388,227.546234 171.094238,224.848129 173.898376,221.902405 
z"/>
</svg>