<?xml version="1.0" encoding="UTF-8"?>
<svg id="Layer_1" data-name="Layer 1" xmlns="http://www.w3.org/2000/svg" viewBox="0 0 960 960">
  <defs>
    <style>
      .cls-1 {
        fill: #fff;
      }

      .cls-1, .cls-2, .cls-3 {
        stroke-width: 0px;
      }

      .cls-2 {
        fill: #011f5b;
      }

      .cls-3 {
        fill: #900;
      }
    </style>
  </defs>
  <g id="Mark">
    <path class="cls-2" d="M362.91,448.18c9.17,3.23,18.9,4.6,28.61,4.04,34.35,0,56.17-18.57,56.17-50.1,0-24.63-13.73-57.77-56.17-57.77h-28.61v103.83ZM362.91,523.34c0,28.71,6.97,36.76,26.27,36.76v6.97h-83.24v-6.97c16.17,0,26.27-5.23,26.27-35.96v-145.05c.07-28.26-6.9-36.76-26.27-36.76v-6.97h84.46c63.83,0,89.68,33.94,89.68,65.85,0,38.33-29.09,59.79-81.6,59.79-11.9,0-23.78-.81-35.57-2.4v64.74Z"/>
    <path class="cls-2" d="M563.33,472.85c1.22-31.36-20.21-44.46-38.33-44.46-23.83,0-37.98,17.77-39.58,44.46h77.91ZM485.35,479.82c-.8,64.25,37.56,80.38,56.97,80.38s29.89-6.97,50.49-29.89v10.45c-17.42,22.23-33.94,30.7-58.99,30.7-44.74.14-77.14-31.22-77.14-74.39s31.36-77.14,71.92-77.14c33.14,0,63.83,26.65,61.81,59.79l-105.05.1Z"/>
    <path class="cls-2" d="M745.56,535.88c0,18.57,4.04,24.39,24.22,24.39v6.97h-76.34v-6.97c19.37,0,24.63-4.42,24.63-17.77v-74.91c0-23.03-16.55-32.72-31.92-32.72-14.15,0-26.65,8.88-40.8,27.87v69.89c0,21.81,2.82,27.46,24.39,27.46v6.97h-75.71v-6.97c18.99,0,23.83-1.6,23.83-27.46v-80.42c0-17.42-4.43-20.91-23.83-20.91v-6.97l44.46-4.43h6.97v28.68c16.97-19.41,33.52-28.68,51.71-28.68,23.83,0,48.5,16.97,48.5,51.29v64.67h-.1Z"/>
    <path class="cls-2" d="M920.5,535.88c0,18.57,4.04,24.39,24.39,24.39v6.97h-76.51v-6.97c19.37,0,24.63-4.42,24.63-17.77v-74.91c0-23.03-16.55-32.72-31.92-32.72-14.15,0-26.65,8.88-40.8,27.87v69.89c0,21.81,2.82,27.46,24.39,27.46v6.97h-75.71v-6.97c18.99,0,23.83-1.6,23.83-27.46v-80.42c0-17.42-4.43-20.91-23.83-20.91v-6.97l44.46-4.43h6.97v28.68c16.97-19.41,33.52-28.68,51.71-28.68,23.83,0,48.5,16.97,48.5,51.29v64.67h-.1Z"/>
  </g>
  <g id="Logotype">
    <path class="cls-2" d="M314.17,608.07c0,6.41,1.74,11.32,8.57,11.32,6.27,0,9.58-4.22,9.58-11.57v-12.72c-.05-.84-.14-1.68-.28-2.51-.24-1.64-1.81-2.26-3.94-2.51v-1.08h10.8v1.18c-2.2.24-3.69.87-3.94,2.51-.16.83-.25,1.67-.28,2.51v12.89c0,9.86-6.27,13.55-12.19,13.55-9.76,0-12.79-4.98-12.79-13.28v-13.76c0-4.25,0-4.01-3.94-4.53v-1.08h12.33v1.18c-4.15.52-3.94.28-3.94,4.53v13.45-.1Z"/>
    <path class="cls-2" d="M364.87,621l-17.21-20.42v15.64c.03.63.1,1.26.21,1.88,0,1.29,1.36,1.78,3.69,1.95v.94h-8.64v-.94c1.67,0,2.86-.66,3.03-1.95.11-.62.18-1.25.21-1.88v-16.76c-.86-1.46-2.42-2.37-4.11-2.4v-.94h6.45c5.26,6.41,10.77,12.93,16.03,19.3h0v-14.42c-.03-.64-.1-1.28-.21-1.92,0-1.25-1.39-1.74-3.73-1.92v-.94h8.68v.94c-1.67,0-2.86.66-3.03,1.92-.14.63-.22,1.27-.24,1.92v20h-1.11Z"/>
    <path class="cls-2" d="M383.02,616.57c0,3.28,0,3.1,3.03,3.48v.94h-9.51v-.94c3.17-.38,3.03-.21,3.03-3.48v-15.92c0-3.28,0-3.1-3.03-3.48v-.94h9.51v.94c-3.17.38-3.03.21-3.03,3.48v15.92Z"/>
    <path class="cls-2" d="M401.1,597.17c-1.92,0-3.48.56-2.2,3.94,1.39,4.18,3.48,10.45,5.3,15.64,2.26-5.4,4.42-10.87,6.62-16.27.87-2.23,0-3.48-2.47-3.48v-.94h7.56v.94c-1.35-.04-2.57.83-2.96,2.13-2.96,7.25-5.96,14.46-8.92,21.71h-1.81c-2.16-6.13-4.56-12.96-6.72-18.95-1.32-3.8-2.4-4.88-4.11-4.88v-.94h9.62v.94l.1.17Z"/>
    <path class="cls-2" d="M421.45,620.06c3.17-.38,3.03-.21,3.03-3.48v-15.92c0-3.28,0-3.1-3.03-3.48v-.94h15.82v5.71h-.94c-.35-2.61-1.05-4.56-3.48-4.56h-4.81v10.1h2.96c2.23,0,3.17-.87,3.24-3.07h.94v7.53h-.94c0-2.09-.87-3.48-3.24-3.48h-2.96v8.01c0,3,1.36,3.24,4.56,3.24,5.12,0,4.88-1.43,6.52-5.23h.91l-1.08,6.38h-17.42v-.94l-.07.14Z"/>
    <path class="cls-2" d="M451.8,608.91h2.93c3.1,0,4.49-2.33,4.49-6.34s-2.13-5.19-4.7-5.19h-2.72v11.53ZM445.32,596.23h10.45c3.48-.35,6.59,2.19,6.94,5.68.01.12.02.23.03.35.03,3.23-1.98,6.12-5.02,7.21l3.48,5.26c1.36,2.18,3.04,4.14,4.98,5.82v.45h-3.48c-2.09,0-3.24-3.87-7.53-10.98h-3.48v6.55c0,3.28,0,3.1,3.03,3.48v.94h-9.51v-.94c3.21-.38,3.03-.21,3.03-3.48v-15.92c0-3.28,0-3.1-3.03-3.48v-.94h.1Z"/>
    <path class="cls-2" d="M483.78,601.49c0-2.44-1.98-4.43-4.42-4.43-.01,0-.02,0-.03,0-1.91-.23-3.65,1.13-3.88,3.04-.02.15-.03.3-.03.44,0,2.47,2.47,3.97,6.03,6.62,3.55,2.65,4.95,4.6,4.95,7.53,0,4.22-4.32,6.55-8.57,6.55-2.09.11-4.19-.19-6.17-.87-.19-.1-.3-.31-.28-.52v-5.16h.94c0,3.02,2.45,5.47,5.47,5.47.07,0,.14,0,.21,0,2.46.06,4.51-1.89,4.56-4.35,0-.04,0-.07,0-.11,0-2.3-1.22-4.18-6.55-7.7-2.57-1.16-4.23-3.7-4.25-6.52,0-3.17,3.48-5.68,7.6-5.68,1.67-.02,3.34.2,4.95.66.16.05.27.21.24.38v4.63h-.77Z"/>
    <path class="cls-2" d="M499.22,616.57c0,3.28,0,3.1,3.03,3.48v.94h-9.51v-.94c3.21-.38,3.07-.21,3.07-3.48v-15.92c0-3.28,0-3.1-3.07-3.48v-.94h9.51v.94c-3.17.38-3.03.21-3.03,3.48v15.92Z"/>
    <path class="cls-2" d="M519.74,616.57c0,3.28,0,3.1,3.03,3.48v.94h-9.51v-.94c3.21-.38,3.03-.21,3.03-3.48v-19.2h-3.17c-3.07,0-3.8,1.95-4.95,4.29h-.87l.94-5.44h19.55l.98,5.44h-.91c-1.15-2.33-1.85-4.29-4.95-4.29h-3.17v19.2Z"/>
    <path class="cls-2" d="M539.04,620.06c3.17-.38,3.07-.21,3.07-3.48v-5.44l-5.47-10.8c-1.15-2.3-2.16-3.17-3.76-3.17v-.94h8.99v.94c-2.68,0-2.44,1.32-1.53,3.17l4.29,8.88,4.88-8.88c1.18-2.16,0-3.17-2.02-3.17v-.94h7.28v.94c-1.01,0-1.95.45-2.89,2.16l-5.92,10.59c-.32.82-.46,1.7-.42,2.58v3.97c0,3.28,0,3.1,3.03,3.48v.94h-9.51v-.94.1Z"/>
    <path class="cls-2" d="M586.88,603.58c0-4.77-2.86-4.95-3.48-4.95-4.98,0-8.22,8.88-8.22,14.84,0,2.37.42,6.69,3.8,6.69,5.23,0,8.01-8.61,8.01-16.59h-.1ZM570.85,612.53c0-6.03,5.19-15.02,12.82-15.02,6.1,0,7.42,4.15,7.42,8.26,0,5.05-4.01,15.78-12.79,15.78-5.85,0-7.46-4.74-7.46-9.02Z"/>
    <path class="cls-2" d="M614.16,599.05l-1.08.94h-6.03c-2.16,10.97-5,21.79-8.5,32.4h-2.09l6.59-32.4h-4.36l.38-1.92h4.32c1.11-6.06,6.28-10.54,12.44-10.77,1.36-.08,2.72.21,3.94.84l-.56,3-1.15.56c-.77-1.55-2.31-2.56-4.04-2.65-2.75,0-4.81,1.88-5.92,6.97l-.49,2.2h6.9l-.21.98-.14-.14Z"/>
    <path class="cls-2" d="M642.14,615.25c0,4.29-.21,4.04,3.94,4.56v1.18h-12.33v-1.18c4.11-.52,3.94-.28,3.94-4.56v-20.63c0-4.25,0-4.01-3.94-4.53v-1.08h12.13c7.6,0,11.36,3.03,11.36,8.54,0,6.59-5.96,10.17-12.96,9.76v-.87c4.13.49,7.87-2.45,8.37-6.58.07-.6.07-1.21,0-1.82.55-3.62-1.94-6.99-5.56-7.54-.68-.1-1.36-.1-2.04,0h-2.79v24.88l-.1-.14Z"/>
    <path class="cls-2" d="M663.29,620.06c3.21-.38,3.07-.21,3.07-3.48v-15.92c0-3.28,0-3.1-3.07-3.48v-.94h15.82v5.71h-.91c-.38-2.61-1.08-4.56-3.48-4.56h-4.81v10.1h2.96c2.23,0,3.21-.87,3.28-3.07h1.08v7.53h-.91c0-2.09-.91-3.48-3.28-3.48h-2.96v8.01c0,3,1.39,3.24,4.56,3.24,5.12,0,4.88-1.43,6.52-5.23h.91l-1.05,6.38h-17.42v-.94l-.31.14Z"/>
    <path class="cls-2" d="M709.98,621l-17.21-20.42v15.64c.03.63.1,1.26.21,1.88,0,1.29,1.36,1.78,3.69,1.95v.94h-8.64v-.94c1.67,0,2.86-.66,3.03-1.95.11-.62.18-1.25.21-1.88v-16.76c-.86-1.46-2.42-2.37-4.11-2.4v-.94h6.45c5.26,6.41,10.77,12.93,16.03,19.3h0v-14.42c-.03-.64-.1-1.28-.21-1.92,0-1.25-1.39-1.74-3.73-1.92v-.94h8.68v.94c-1.67,0-2.86.66-3.03,1.92-.12.63-.21,1.27-.24,1.92v20h-1.12Z"/>
    <path class="cls-2" d="M741.69,621c-5.64-6.65-11.46-13.62-17.25-20.42v15.64c.03.63.1,1.26.21,1.88,0,1.29,1.39,1.78,3.73,1.95v.94h-8.68v-.94c1.71,0,2.86-.66,3.03-1.95.14-.62.23-1.25.24-1.88v-16.76c-.87-1.45-2.42-2.36-4.11-2.4v-.94h6.45c5.26,6.41,10.73,12.93,15.99,19.3h0v-14.42c-.04-.64-.12-1.28-.24-1.92,0-1.25-1.36-1.74-3.69-1.92v-.94h8.64v.94c-1.64,0-2.86.66-3.03,1.92-.11.63-.18,1.27-.21,1.92v20h-1.08Z"/>
    <path class="cls-2" d="M764.68,601.49c.02-2.42-1.93-4.41-4.35-4.43-.04,0-.07,0-.11,0-1.91-.21-3.63,1.17-3.85,3.08-.01.13-.02.27-.02.4,0,2.47,2.47,3.97,5.99,6.62s4.98,4.6,4.98,7.53c0,4.22-4.32,6.55-8.57,6.55-2.07,0-4.13-.37-6.06-1.11-.17-.12-.26-.32-.24-.52v-4.91h.94c0,3.02,2.45,5.47,5.47,5.47.07,0,.14,0,.21,0,2.46.06,4.51-1.89,4.56-4.35,0-.04,0-.07,0-.11,0-2.3-1.22-4.18-6.55-7.7-2.59-1.14-4.26-3.69-4.29-6.52,0-3.17,3.48-5.68,7.6-5.68,1.68-.03,3.36.2,4.98.66.16.05.27.21.24.38v4.63h-.94Z"/>
    <path class="cls-2" d="M778.93,620.06c3.21-.38,3.07-.21,3.07-3.48v-5.44l-5.47-10.8c-1.15-2.3-2.13-3.17-3.76-3.17v-.94h8.99v.94c-2.68,0-2.44,1.32-1.57,3.17l4.29,8.88,4.88-8.88c1.18-2.16,0-3.17-2.02-3.17v-.94h7.28v.94c-.98,0-1.95.45-2.89,2.16l-5.89,10.59c-.32.82-.46,1.7-.42,2.58v3.97c0,3.28,0,3.1,3.03,3.48v.94h-9.51v-.94.1Z"/>
    <path class="cls-2" d="M800.43,620.06c3.21-.38,3.07-.21,3.07-3.48v-15.92c0-3.28,0-3.1-3.07-3.48v-.94h9.55v.94c-3.21.38-3.07.21-3.07,3.48v16.48c0,2.47,1.39,2.72,4.53,2.72,5.12,0,4.91-1.43,6.55-5.23h.91l-1.08,6.38h-17.42v-.94h.03Z"/>
    <path class="cls-2" d="M831.23,597.17c-1.95,0-3.48.56-2.2,3.94,1.36,4.18,3.48,10.45,5.26,15.64,2.26-5.4,4.43-10.87,6.62-16.27.87-2.23,0-3.48-2.44-3.48v-.94h7.63v.94c-1.35-.04-2.55.83-2.93,2.13-3,7.25-5.99,14.46-8.95,21.71h-1.81c-2.16-6.13-4.56-12.96-6.72-18.95-1.29-3.8-2.4-4.88-4.08-4.88v-.94h9.62v1.11Z"/>
    <path class="cls-2" d="M860.54,611.45l-3.73-11.5h0l-4.22,11.5h7.94ZM852,612.78l-1.64,4.74c-.43.88-.06,1.95.82,2.37.3.14.63.2.95.17v.94h-6.45v-.94c1.11-.05,2.09-.73,2.54-1.74,1.53-3.14,5.64-14.7,8.61-22.51h1.99c2.4,6.97,5.99,18.01,7.21,21.15.77,1.99,1.32,3.1,2.86,3.1v.94h-8.26v-.94c2.23,0,2.44-1.15,1.88-2.72l-1.53-4.56h-8.99Z"/>
    <path class="cls-2" d="M896.11,621l-17.21-20.42v15.64c.03.63.1,1.26.21,1.88.17,1.29,1.39,1.78,3.73,1.95v.94h-8.68v-.94c1.71,0,2.86-.66,3.03-1.95.11-.62.18-1.25.21-1.88v-16.76c-.85-1.46-2.39-2.37-4.08-2.4v-.94h6.41c5.3,6.41,10.77,12.93,16.03,19.3h0v-14.42c-.03-.64-.1-1.28-.21-1.92-.17-1.25-1.36-1.74-3.69-1.92v-.94h8.64v.94c-1.64,0-2.86.66-3.03,1.92-.11.63-.18,1.27-.21,1.92v20h-1.15Z"/>
    <path class="cls-2" d="M912.83,616.57c0,3.28,0,3.1,3.07,3.48v.94h-9.51v-.94c3.17-.38,3.03-.21,3.03-3.48v-15.92c0-3.28,0-3.1-3.03-3.48v-.94h9.51v.94c-3.17.38-3.07.21-3.07,3.48v15.92h0Z"/>
    <path class="cls-2" d="M936.18,611.45l-3.73-11.5h0l-4.36,11.5h8.08ZM927.64,612.78l-1.64,4.74c-.43.88-.06,1.95.82,2.37.3.14.63.2.95.17v.94h-6.45v-.94c1.11-.05,2.1-.73,2.54-1.74,1.53-3.14,5.68-14.7,8.61-22.51h1.99c2.4,6.97,5.99,18.01,7.21,21.15.77,1.99,1.32,3.1,2.86,3.1v.94h-8.22v-.94c2.2,0,2.4-1.15,1.85-2.72l-1.5-4.56h-9.02Z"/>
  </g>
  <g id="Shield">
    <g id="Shield-2">
      <path class="cls-1" d="M277.86,327.69H15.22v130.9c0,57,31.36,98.29,57.94,122.89,29.16,27.04,61.32,42.61,72.05,44.98l1.32.28,1.32-.31c10.73-2.33,42.89-17.91,72.05-44.95,26.52-24.6,58.12-65.89,57.94-122.89,0,0,0-130.9,0-130.9Z"/>
      <path class="cls-3" d="M261.7,382.5h0c.4.29.75.65,1.05,1.05.6.91.6,2.09,0,3-.29.4-.65.75-1.05,1.05-.59.45-1.15.91-1.15,1.67v4.63h-55.09v-4.63c0-.77-.56-1.22-1.15-1.67-.41-.29-.77-.65-1.08-1.05-.56-.97-.5-2.18.14-3.1.31-.4.67-.75,1.08-1.05.59-.45,1.15-.91,1.15-1.67v-15.12c0-.77-.56-1.18-1.15-1.67-.42-.27-.78-.61-1.08-1.01-.3-.46-.44-.99-.42-1.53-.02-.53.13-1.05.42-1.5.27-.32.59-.61.94-.84.59-.45,1.15-.91,1.15-1.67v-4.98h.7c2.7.19,5.42-.12,8.01-.91.81-.37,1.6-.82,2.33-1.32,1.87-1.38,4.12-2.16,6.45-2.23,2.2.12,4.35.67,6.34,1.6,1.1.53,2.27.89,3.48,1.05h.38c1.21-.16,2.38-.52,3.48-1.05,1.98-.94,4.12-1.48,6.31-1.6,2.34.07,4.6.86,6.48,2.26.74.5,1.52.93,2.33,1.29,2.58.79,5.29,1.1,7.98.91h.73v4.81c0,.77.56,1.22,1.15,1.67.4.28.75.62,1.05,1.01.31.45.46.99.45,1.53,0,.53-.15,1.06-.45,1.5-.29.4-.64.74-1.05,1.01-.59.49-1.15.91-1.15,1.67v15.23c0,.77.56,1.22,1.15,1.67h.07ZM194.17,390.41c-3.05,4.35-7.63,7.4-12.82,8.54-1.63.28-3.29.42-4.95.42h0c-8.57,0-16.52-3.73-24.39-7.87l-3-1.64c-5.12-2.79-12.3-6.72-18.36-6.72-1.72-.04-3.41.34-4.95,1.11h-.24v.28c-.03.76-.17,1.51-.42,2.23-1.34,2.58-3.29,4.79-5.68,6.45-3.81,3.21-8.57,5.09-13.55,5.33-.76.02-1.51-.1-2.23-.35-.96-.31-1.8-.89-2.44-1.67-.28-.41-.53-.84-.73-1.29-.15-.39-.25-.8-.31-1.22v-.31h-.31c-1.87-.25-3.32-1.77-3.48-3.66.19-1.34.84-2.58,1.85-3.48,1.39-1.67,2.58-3.1.63-4.95l-.63-.49c-.29-.2-.56-.44-.8-.7-1.71-1.85-.7-5.68,0-7.98v-.28c.76-2.75,1.81-5.41,3.14-7.94,1.76-4.11,4.32-7.83,7.53-10.94h.45l.94,1.5.56.94.31-1.01c.6-2.36,2.26-4.3,4.49-5.26,1.82-.53,3.79-.12,5.26,1.08l.42.31.31-.45c.77-1.44,2.24-2.36,3.87-2.44,1.9.07,3.69.91,4.95,2.33l.31.31.35-.28c1.68-1.57,3.9-2.43,6.2-2.4,1.81.33,3.26,1.7,3.69,3.48v.56l.52-.28c1.73-.97,3.84-.97,5.57,0,1.12.78,1.68,2.14,1.43,3.48v.66h.63c2.19-.56,4.52-.07,6.31,1.32,1.1,1.22,1.58,2.88,1.29,4.49v.63h.63c1.61-.37,3.28.23,4.29,1.53.54,1.08.62,2.34.21,3.48v.49h.49c1.15.14,2.16.85,2.68,1.88.3,1.32.2,2.7-.28,3.97v.45l.38.17c1.16.43,2.13,1.27,2.72,2.37.73,1.58.73,3.4,0,4.98v.31l.24.24c1.85,1.6,3.69,3.1,5.51,4.43,3.48,2.65,9.37,4.08,13.24.87,1.54-1.37,2.17-3.48,1.64-5.47-.3-1.72-1.6-3.1-3.31-3.48-2.96-.66-5.26,2.13-7.18,4.95-.09.04-.19.04-.28,0-.1-.04-.19-.11-.24-.21-1.8-3.13-2-6.94-.52-10.24,1.58-2.39,4.13-3.97,6.97-4.32h.42v-.42c-.38-3.89.88-7.75,3.48-10.66,2.37-2,5.53-2.79,8.57-2.16.07-.03.14-.03.21,0,.03.09.03.19,0,.28-2.75,5.43-2.99,11.79-.66,17.42,0,.56.31,1.18.49,1.81h0c1.74,5.12,1.23,10.74-1.39,15.47ZM88.77,382.5h0c.41.29.77.65,1.08,1.05.56.92.56,2.08,0,3-.31.4-.67.75-1.08,1.05-.59.45-1.15.91-1.15,1.67v4.63h-54.98v-4.63c0-.77-.56-1.22-1.15-1.67-.4-.29-.75-.65-1.05-1.05-.6-.91-.6-2.09,0-3,.29-.4.65-.75,1.05-1.05.59-.45,1.15-.91,1.15-1.67v-15.23c0-.77-.56-1.18-1.15-1.67-.41-.27-.76-.61-1.05-1.01-.31-.45-.46-.99-.45-1.53,0-.53.15-1.06.45-1.5.28-.32.59-.6.94-.84.59-.45,1.15-.91,1.15-1.67v-4.98h.73c2.69.19,5.4-.12,7.98-.91.82-.36,1.6-.8,2.33-1.32,1.89-1.38,4.15-2.15,6.48-2.23,2.19.12,4.33.66,6.31,1.6,1.1.53,2.28.88,3.48,1.05h.38c1.21-.17,2.38-.52,3.48-1.05,1.98-.94,4.12-1.48,6.31-1.6,2.33.07,4.58.86,6.45,2.26.75.48,1.53.91,2.33,1.29,2.59.79,5.31,1.09,8.01.91h.7v4.81c0,.77.56,1.22,1.15,1.67.42.27.78.61,1.08,1.01.3.46.44.99.42,1.53.02.53-.13,1.05-.42,1.5-.3.4-.66.74-1.08,1.01-.59.49-1.15.91-1.15,1.67v15.23c0,.77.56,1.22,1.15,1.67h.1ZM21.87,334.66s.35,76.1,0,75.75h249.37v-75.75H21.87Z"/>
      <path class="cls-2" d="M107.76,379.23c.93,0,1.83.31,2.54.91.26.2.5.42.73.66.54.49.57,1.33.08,1.87-.03.03-.05.05-.08.08-.63.52-1.32,1.01-1.78,1.32-1.01.7-2.75,1.95-3.94.98-.63-.52.59-1.36,0-3.48s1.18-2.37,2.44-2.37v.03Z"/>
      <path class="cls-2" d="M108.18,354.7c-2.74,2.92-4.97,6.29-6.59,9.96-1.29,2.46-2.3,5.05-3.03,7.74v.28c-.49,1.78-1.5,5.54,0,6.97.21.2.43.39.66.56.25.17.48.35.7.56,2.72,2.58.84,4.81-.56,6.45-.79.72-1.34,1.67-1.57,2.72,0,1.92,2.33,2.58,3.03,2.75.34.06.6.35.63.7.02.49.11.97.28,1.43.15.36.35.7.59,1.01.5.63,1.16,1.1,1.92,1.36.51.14,1.04.21,1.57.21,4.63-.26,9.06-2,12.65-4.95,2.22-1.51,4.03-3.54,5.26-5.92.2-.53.33-1.08.38-1.64l-3.48-.59h0c-.45-.03-.82-.38-.87-.84,0-.73.52-1.15,1.78-2.02l1.15-.8c1.85-1.36,3.48-2.47,4.25-3.07-.93-1.1-1.78-2.26-2.54-3.48-.42-.69-.89-1.36-1.39-1.99-1.82-2.17-4.91-2.78-7.42-1.46-.99.71-1.93,1.5-2.79,2.37-.77.72-1.58,1.38-2.44,1.99-.38.23-.87.1-1.1-.28-.18-.3-.14-.68.09-.94l.42-.35c1.15-1.11,3.83-3.66,3.83-5.44-.84-4.78-2.68-9.33-5.4-13.34v.07ZM130.55,382.08c6.2,0,13.28,3.87,18.82,6.97l2.96,1.6c9.48,4.88,18.78,9.13,28.81,7.35,4.9-1.09,9.22-3.96,12.13-8.05,2.5-4.51,2.99-9.85,1.36-14.74l-.52-1.81c-2.16-5.5-2.04-11.63.35-17.04-2.4-.28-4.81.43-6.65,1.99-2.52,2.86-3.67,6.68-3.14,10.45,0,.41-.29.77-.7.84-2.8.12-5.39,1.55-6.97,3.87-1.24,2.47-1.32,5.37-.21,7.91,1.53-2.09,4.11-4.91,7.42-4.18,2.11.48,3.73,2.16,4.15,4.29.62,2.39-.15,4.93-1.99,6.59-4.32,3.48-10.45,2.06-14.6-.87-5.22-3.9-10.01-8.35-14.29-13.28-.84-.98-1.71-1.95-2.51-2.93-3.02-3.73-6.4-7.15-10.1-10.21-5.17-3.77-11.49-5.63-17.87-5.26-5.04.17-9.97,1.48-14.42,3.83,1.45,2.67,2.34,5.61,2.61,8.64-.02.45-.1.9-.24,1.32,3.14-1.63,6.99-.86,9.27,1.85.57.68,1.09,1.41,1.57,2.16.84,1.39,1.83,2.67,2.96,3.83.16.17.25.39.24.63-.02.24-.15.46-.35.59,0,0-2.06,1.46-4.95,3.48l-1.18.84h-.21l2.54.42c1.76-.94,3.72-1.41,5.71-1.36v.28ZM176.4,399.92c-8.61,0-16.65-3.73-24.77-7.94l-3.03-1.57c-6.55-3.48-16.41-8.99-22.82-5.61-.05.81-.22,1.61-.49,2.37-1.35,2.7-3.37,5.01-5.85,6.72-3.87,3.13-8.65,4.92-13.62,5.12-.81.01-1.63-.1-2.4-.35-1.04-.36-1.96-1.01-2.65-1.88-.33-.43-.6-.9-.8-1.39-.16-.43-.28-.87-.35-1.32-2.03-.38-3.55-2.08-3.69-4.15.18-1.44.87-2.76,1.95-3.73,1.53-1.85,2.23-2.79.66-4.29l-.56-.45c-.32-.21-.61-.46-.87-.73-1.92-2.06-.87-6.06-.21-8.47v-.24c.75-2.8,1.8-5.51,3.14-8.08,1.82-4.15,4.42-7.92,7.67-11.08.2-.08.43-.08.63,0,.22.04.42.16.56.35,0,.17,1.46,2.23,2.86,4.95,4.68-2.39,9.83-3.72,15.09-3.9,6.78-.52,13.53,1.37,19.06,5.33,3.84,3.11,7.34,6.62,10.45,10.45l2.51,2.86c4.16,4.85,8.83,9.23,13.94,13.07,3.48,2.58,8.99,3.94,12.65.91,1.38-1.26,1.95-3.18,1.46-4.98-.28-1.52-1.43-2.73-2.93-3.1-2.65-.56-4.84,2.09-6.65,4.77-.17.23-.44.37-.73.35-.29-.04-.54-.22-.66-.49-1.8-3.32-1.87-7.31-.21-10.7,1.68-2.52,4.38-4.19,7.39-4.56-.5-4.01.78-8.04,3.48-11.05,2.5-2.08,5.8-2.91,8.99-2.26.33-.09.68.07.84.38.1.22.1.48,0,.7-2.69,5.3-2.95,11.5-.7,17,0,.59.35,1.18.49,1.81,1.81,5.3,1.25,11.13-1.53,15.99-3.13,4.48-7.83,7.62-13.17,8.78-1.66.28-3.34.42-5.02.42h-.07Z"/>
      <path class="cls-2" d="M102.81,394.45c-.75.05-1.51.05-2.26,0-.42-.03-.74-.4-.7-.83,0-.02,0-.03,0-.04.05-.43.44-.74.87-.7,5.02.65,10.03-1.18,13.45-4.91.33-.29.82-.29,1.15,0,.31.32.31.83,0,1.15-3.25,3.44-7.78,5.38-12.51,5.37v-.03Z"/>
      <path class="cls-2" d="M166.4,382.57h-.31c-.35-.18-.52-.6-.38-.98.81-1.43.93-3.14.35-4.67-.59-1.05-1.59-1.8-2.75-2.09-.2-.07-.38-.2-.49-.38-.07-.19-.07-.4,0-.59.52-1.27.7-2.65.52-4.01-.35-.94-2.13-1.32-2.68-1.39-.44-.07-.73-.49-.66-.92,0-.04.02-.08.03-.12.48-1.01.55-2.18.17-3.24-1.18-1.85-4.25-.94-4.29-.94-.26.08-.55,0-.73-.21-.15-.22-.15-.51,0-.73.48-1.57.17-3.27-.84-4.56-2.26-2.16-6.72-.94-6.72-.91-.26.08-.55,0-.73-.21-.15-.22-.15-.51,0-.73,0,0,.73-2.4-.8-3.48-1.77-.87-3.88-.65-5.44.56-.23.12-.5.12-.73,0-.24-.1-.41-.33-.42-.59,0,0-.42-3.14-3.1-3.48-2.23.08-4.35,1-5.92,2.58-.14.15-.35.23-.56.21-.22,0-.42-.11-.56-.28-1.08-1.46-2.75-2.38-4.56-2.51-1.56.14-2.91,1.15-3.48,2.61-.07.24-.27.42-.52.45-.25.07-.51,0-.7-.17-1.29-1.29-3.16-1.83-4.95-1.43-3.14,1.15-4.01,4.98-4.32,6.24h0c-.1.38-.49.61-.87.52-.38-.06-.64-.42-.57-.8,0-.02,0-.05.02-.07h0c.43-3.16,2.4-5.9,5.26-7.32,1.98-.6,4.12-.17,5.71,1.15.89-1.58,2.51-2.6,4.32-2.72,2.13.03,4.13.99,5.51,2.61,1.79-1.66,4.15-2.56,6.59-2.51,1.89.43,3.39,1.88,3.87,3.76,1.86-1.08,4.16-1.08,6.03,0,1.27.86,1.92,2.39,1.67,3.9,2.35-.6,4.84-.06,6.72,1.46,1.21,1.33,1.74,3.14,1.43,4.91,1.8-.39,3.67.3,4.77,1.78.63,1.17.73,2.55.28,3.8,1.3.21,2.43,1.02,3.03,2.2.3,1.44.2,2.93-.28,4.32,1.26.48,2.31,1.4,2.96,2.58.79,1.93.68,4.12-.31,5.96-.11.27-.37.45-.66.45h.1Z"/>
      <path class="cls-2" d="M162.71,392.78h0c-.38-.03-.67-.37-.63-.76,0-.02,0-.03,0-.05.31-2.86-1.32-3.48-2.82-3.83-.34-.08-.67-.21-.98-.38-.8-.45-.8-1.39-.84-2.37.1-1.13-.21-2.25-.87-3.17-1.39-1.53-4.11-.52-4.15-.52-.23.12-.5.12-.73,0-.21-.17-.3-.44-.24-.7.23-1.64-.28-3.3-1.39-4.53-1.57-.91-3.43-1.17-5.19-.73-.2.1-.43.1-.63,0-.19-.15-.29-.39-.28-.63.21-1.72-.58-3.4-2.02-4.36-1.11-.8-2.58-.9-3.8-.28-2.28,1.83-5.59,1.61-7.6-.52-.84-.7-1.97-.95-3.03-.7-1.46.54-2.62,1.66-3.21,3.1-.19.37-.63.52-1.01.35-.35-.19-.5-.61-.35-.98.77-1.86,2.31-3.3,4.22-3.94,1.49-.33,3.04.01,4.25.94,2.72,1.95,3.48,1.88,6.03.42,1.7-.85,3.72-.71,5.3.35,1.62,1.08,2.63,2.87,2.72,4.81,1.93-.36,3.92.07,5.54,1.18,1.21,1.17,1.89,2.78,1.88,4.46,1.66-.45,3.44.02,4.67,1.22.92,1.15,1.36,2.61,1.25,4.08-.07.39-.07.79,0,1.18l.66.24c2.5.36,4.23,2.67,3.87,5.16-.01.08-.02.16-.04.24-.07.36-.37.62-.73.63l.14.07Z"/>
      <path class="cls-2" d="M89.23,385.08c.03.31-.06.62-.24.87-.23.31-.52.58-.84.8-.9.53-1.49,1.46-1.57,2.51v3.48h-52.96v-3.48c-.13-.98-.71-1.84-1.57-2.33-.33-.21-.61-.48-.84-.8-.19-.25-.29-.56-.28-.87h0c-.01-.32.09-.64.28-.91.21-.36.5-.67.84-.91.9-.53,1.49-1.46,1.57-2.51v-15.33c-.08-1.04-.66-1.96-1.57-2.47-.32-.22-.6-.49-.84-.8-.2-.26-.29-.58-.28-.91h0c-.01-.32.09-.64.28-.91.23-.31.51-.57.84-.77.9-.53,1.49-1.46,1.57-2.51v-3.48h3.97v34.84h19.44c.45,1.71,2.2,2.74,3.91,2.29,1.12-.29,2-1.17,2.29-2.29h19.3v-34.84h3.97v3.48c.08,1.04.66,1.98,1.57,2.51.32.21.6.47.84.77.18.27.27.59.24.91h0c.03.32-.06.64-.24.91-.24.3-.53.57-.84.8-.9.51-1.49,1.44-1.57,2.47v15.23c.08,1.04.66,1.98,1.57,2.51.32.21.6.47.84.77.18.27.27.59.24.91h0l.07.07ZM41.77,352.64c.88-.39,1.72-.85,2.51-1.39,1.67-1.27,3.69-1.98,5.78-2.06,2.02.13,4,.65,5.82,1.53,1.12.49,2.29.85,3.48,1.08v30.59h-.17c-2.04.34-4.05.86-5.99,1.57l-2.33.73c-2.28.56-4.62.81-6.97.73-1.43-.03-2.87.05-4.29.24v-32.33c.8-.14,1.59-.37,2.33-.7h-.17ZM64.28,350.73c1.83-.88,3.82-1.4,5.85-1.53,2.09.09,4.11.81,5.78,2.06.79.54,1.63,1.01,2.51,1.39.75.33,1.53.56,2.33.7v32.33c-1.42-.18-2.85-.25-4.29-.21-2.35.08-4.69-.17-6.97-.73l-2.33-.73c-1.94-.71-3.95-1.23-5.99-1.57h0v-30.66c1.12-.22,2.21-.57,3.24-1.05h-.14ZM89.09,382.08c-.59-.49-.94-.8-.94-1.29v-15.19c0-.49.35-.77.94-1.25.46-.31.86-.7,1.18-1.15.62-1.08.62-2.41,0-3.48-.32-.45-.72-.84-1.18-1.15-.59-.45-.94-.77-.94-1.25v-5.23h-1.22c-2.63.18-5.28-.12-7.8-.87-.78-.38-1.54-.81-2.26-1.29-1.95-1.44-4.3-2.26-6.72-2.33-2.26.13-4.47.68-6.52,1.64-1.1.53-2.27.87-3.48,1.01h-.38c-1.21-.14-2.39-.48-3.48-1.01-1.94-.99-4.04-1.6-6.2-1.81-2.43.07-4.77.89-6.72,2.33-.72.48-1.48.91-2.26,1.29-2.52.81-5.16,1.16-7.8,1.05h-1.22v5.12c0,.49-.35.8-.98,1.25-.44.32-.83.71-1.15,1.15-.38.52-.56,1.17-.52,1.81-.04.63.15,1.26.52,1.78.32.44.71.83,1.15,1.15.63.49.98.77.98,1.25v15.23c0,.49-.35.8-.98,1.29-.43.32-.82.69-1.15,1.11-.38.53-.56,1.17-.52,1.81-.04.63.15,1.26.52,1.78.32.44.71.83,1.15,1.15.63.49.98.77.98,1.29v5.16h56.13v-5.16c0-.52.35-.8.94-1.29.46-.31.86-.7,1.18-1.15.35-.53.53-1.15.52-1.78,0-.64-.19-1.27-.52-1.81-.33-.43-.73-.81-1.18-1.11l-.03-.03Z"/>
      <path class="cls-2" d="M262.15,385.08c.01.31-.09.62-.28.87-.23.32-.51.59-.84.8-.9.53-1.49,1.46-1.57,2.51v3.48h-52.96v-3.48c-.08-1.04-.66-1.98-1.57-2.51-.32-.22-.6-.49-.84-.8-.18-.25-.27-.56-.24-.87h0c-.02-.32.06-.64.24-.91.23-.3.52-.56.84-.77.9-.53,1.49-1.46,1.57-2.51v-15.3c-.08-1.04-.66-1.96-1.57-2.47-.31-.23-.59-.5-.84-.8-.19-.26-.27-.58-.24-.91h0c-.02-.32.06-.64.24-.91.23-.3.52-.56.84-.77.9-.53,1.49-1.46,1.57-2.51v-3.48h4.01v34.84h19.27c.49,1.72,2.28,2.72,4,2.24,1.08-.31,1.93-1.15,2.24-2.24h19.27v-34.84h3.97v3.48c.08,1.04.66,1.98,1.57,2.51.33.2.61.46.84.77.19.26.29.58.28.91h0c.02.33-.08.65-.28.91-.23.31-.52.58-.84.8-.9.51-1.49,1.44-1.57,2.47v15.23c.08,1.04.66,1.98,1.57,2.51.33.2.61.46.84.77.19.26.29.58.28.91h0l.21.07ZM214.66,352.64c.88-.39,1.72-.85,2.51-1.39,1.68-1.25,3.69-1.96,5.78-2.06,2.03.13,4.02.65,5.85,1.53,1.11.5,2.28.86,3.48,1.08v30.59h0c-2.03.34-4.02.87-5.96,1.57l-2.37.73c-2.28.57-4.62.81-6.97.73-1.43-.04-2.86.03-4.29.21v-32.3c.8-.14,1.59-.37,2.33-.7h-.38ZM237.2,350.73c1.82-.88,3.8-1.4,5.82-1.53,2.05.1,4.01.82,5.64,2.06.8.53,1.64,1,2.51,1.39.76.33,1.55.56,2.37.7v32.33c-1.42-.18-2.85-.25-4.29-.21-2.35.08-4.69-.17-6.97-.73l-2.37-.73c-1.93-.7-3.93-1.23-5.96-1.57h0v-30.66c1.13-.22,2.23-.57,3.28-1.05h-.03ZM262.01,382.08c-.63-.49-.98-.8-.98-1.29v-15.19c0-.49.35-.77.98-1.25.44-.32.83-.71,1.15-1.15.37-.51.56-1.14.52-1.78.04-.65-.14-1.29-.52-1.81-.32-.44-.71-.83-1.15-1.15-.63-.45-.98-.77-.98-1.25v-5.12h-1.22c-2.6.1-5.19-.25-7.67-1.05-.78-.38-1.54-.81-2.26-1.29-1.95-1.44-4.3-2.26-6.72-2.33-2.25.12-4.45.68-6.48,1.64-1.1.53-2.27.87-3.48,1.01h-.38c-1.21-.14-2.39-.48-3.48-1.01-2.05-.96-4.26-1.51-6.52-1.64-2.43.08-4.77.89-6.72,2.33-.72.48-1.48.91-2.26,1.29-2.47.79-5.07,1.15-7.67,1.05h-1.22v5.12c0,.49-.35.8-.94,1.25-.46.31-.86.7-1.18,1.15-.62,1.08-.62,2.41,0,3.48.32.45.72.84,1.18,1.15.59.49.94.77.94,1.25v15.23c0,.49-.35.8-.94,1.29-.45.31-.85.68-1.18,1.11-.34.54-.52,1.17-.52,1.81,0,.63.18,1.25.52,1.78.32.45.72.84,1.18,1.15.59.49.94.77.94,1.29v5.16h56.13v-5.05c0-.52.35-.8.98-1.29.44-.32.83-.71,1.15-1.15.37-.51.56-1.14.52-1.78.04-.65-.15-1.29-.52-1.81-.33-.42-.72-.8-1.15-1.11l-.03-.03Z"/>
      <path class="cls-2" d="M255.35,520.41l-108.81-104.98-108.81,104.98c-9.26-19.27-14.02-40.39-13.94-61.78v-46.55h245.64v46.55c.09,21.38-4.68,42.5-13.94,61.78h-.14ZM220.79,531.35c-8.45,8.45-22.15,8.46-30.6,0-8.45-8.45-8.46-22.15,0-30.6s22.15-8.46,30.6,0h0c8.45,8.43,8.47,22.11.04,30.56-.01.01-.03.03-.04.04ZM124.9,462.36c0-11.95,9.69-21.64,21.64-21.64,11.95,0,21.64,9.69,21.64,21.64,0,11.95-9.69,21.64-21.64,21.64h0c-11.95,0-21.64-9.69-21.64-21.64ZM214.14,575.25c-29.2,27.07-59.55,40.73-67.59,42.79-8.12-2.06-38.33-15.71-67.59-42.79l-2.16-2.02,69.69-74.04,69.69,74.04-2.16,2.02h.14ZM72.47,531.35c-8.45-8.45-8.46-22.15,0-30.6,8.45-8.45,22.15-8.46,30.6,0s8.46,22.15,0,30.6c0,0,0,0,0,0-8.42,8.45-22.1,8.47-30.55.04-.01-.01-.03-.03-.04-.04ZM269.36,336.23v72.33H23.72v-72.37l245.64.03ZM272.85,332.75H20.2v125.89c-.17,55.19,30.56,95.26,56.34,119.2,28.12,26.06,59.79,41.6,69.69,43.76h.49c9.96-2.16,41.81-17.7,69.69-43.76,25.92-23.94,56.65-64.01,56.65-119.2v-125.96l-.21.07Z"/>
    </g>
  </g>
</svg>